# xmcd CD database file
#
# Track frame offsets:
#	150
#	22426
#	40023
#	59072
#	76282
#	100776
#	119075
#	135273
#	153417
#	175210
#	194447
#	223067
#
# Disc length: 3251 seconds
#
# Revision: 2
# Processed by: cddbd v1.5.1PL0 Copyright (c) Steve Scherf et al.
# Submitted via: CDex 1.51
#
DISCID=ad0cb10c
DTITLE=Korean Jazz All Star - Winter Story of Jazz Family
DYEAR=2003
DGENRE=Jazz
TTITLE0=O Come, All Ye Faithful
TTITLE1=Let It Snow! Let It Snow!
TTITLE2=O Holy Night
TTITLE3=Jingle Bell Rock
TTITLE4=Silver Bells
TTITLE5=It Came Upon A Midnight Clear
TTITLE6=The Christmas Song
TTITLE7=Rudolph, The Red Nosed Reindeer
TTITLE8=Have Yourself A Merry Little Christmas
TTITLE9=The Little Drummer Boy
TTITLE10=Santa Claus Is Coming To Town
TTITLE11=Music Video
EXTD=YEAR: 2003
EXTT0=
EXTT1=
EXTT2=
EXTT3=
EXTT4=
EXTT5=
EXTT6=
EXTT7=
EXTT8=
EXTT9=
EXTT10=
EXTT11=
PLAYORDER=
